<?xml version="1.0" encoding="UTF-8"?>
<svg id="_Слой_1" data-name="Слой 1" xmlns="http://www.w3.org/2000/svg" xmlns:xlink="http://www.w3.org/1999/xlink" viewBox="0 0 263.48 260.87">
  <defs>
    <style>
      .cls-1 {
        fill: url(#_Безымянный_градиент_9-7);
      }

      .cls-1, .cls-2, .cls-3, .cls-4, .cls-5, .cls-6, .cls-7, .cls-8, .cls-9, .cls-10, .cls-11, .cls-12, .cls-13, .cls-14, .cls-15, .cls-16, .cls-17, .cls-18, .cls-19, .cls-20, .cls-21, .cls-22, .cls-23, .cls-24, .cls-25, .cls-26, .cls-27, .cls-28, .cls-29, .cls-30, .cls-31, .cls-32 {
        stroke-width: 0px;
      }

      .cls-2 {
        fill: url(#_Безымянный_градиент_9-27);
        fill-rule: evenodd;
      }

      .cls-3 {
        fill: url(#_Безымянный_градиент_9-10);
      }

      .cls-4 {
        fill: url(#_Безымянный_градиент_9-13);
      }

      .cls-5 {
        fill: url(#_Безымянный_градиент_9-2);
      }

      .cls-6 {
        fill: url(#_Безымянный_градиент_9-5);
      }

      .cls-7 {
        fill: url(#_Безымянный_градиент_9-16);
      }

      .cls-8 {
        fill: url(#_Безымянный_градиент_9);
      }

      .cls-9 {
        fill: url(#_Безымянный_градиент_9-8);
      }

      .cls-10 {
        fill: url(#_Безымянный_градиент_9-31);
      }

      .cls-11 {
        fill: url(#_Безымянный_градиент_9-15);
      }

      .cls-12 {
        fill: url(#_Безымянный_градиент_9-12);
      }

      .cls-13 {
        fill: url(#_Безымянный_градиент_9-20);
      }

      .cls-14 {
        fill: url(#_Безымянный_градиент_9-22);
      }

      .cls-15 {
        fill: url(#_Безымянный_градиент_9-19);
      }

      .cls-16 {
        fill: url(#_Безымянный_градиент_9-25);
      }

      .cls-17 {
        fill: url(#_Безымянный_градиент_9-3);
      }

      .cls-18 {
        fill: url(#_Безымянный_градиент_9-4);
      }

      .cls-19 {
        fill: url(#_Безымянный_градиент_9-9);
      }

      .cls-20 {
        fill: url(#_Безымянный_градиент_9-29);
      }

      .cls-21 {
        fill: url(#_Безымянный_градиент_9-14);
      }

      .cls-22 {
        fill: url(#_Безымянный_градиент_9-28);
      }

      .cls-23 {
        fill: url(#_Безымянный_градиент_9-18);
      }

      .cls-24 {
        fill: url(#_Безымянный_градиент_9-30);
      }

      .cls-25 {
        fill: url(#_Безымянный_градиент_9-17);
      }

      .cls-26 {
        fill: url(#_Безымянный_градиент_9-11);
      }

      .cls-27 {
        fill: url(#_Безымянный_градиент_9-24);
      }

      .cls-28 {
        fill: url(#_Безымянный_градиент_9-26);
      }

      .cls-29 {
        fill: #1d1d1b;
      }

      .cls-30 {
        fill: url(#_Безымянный_градиент_9-23);
      }

      .cls-31 {
        fill: url(#_Безымянный_градиент_9-21);
      }

      .cls-32 {
        fill: url(#_Безымянный_градиент_9-6);
      }
    </style>
    <linearGradient id="_Безымянный_градиент_9" data-name="Безымянный градиент 9" x1="42.72" y1="72.11" x2="42.72" y2="214.12" gradientUnits="userSpaceOnUse">
      <stop offset="0" stop-color="#c9a97a"/>
      <stop offset=".22" stop-color="#c5a576"/>
      <stop offset=".43" stop-color="#bb996d"/>
      <stop offset=".65" stop-color="#aa855d"/>
      <stop offset=".86" stop-color="#926948"/>
      <stop offset="1" stop-color="#7f5336"/>
    </linearGradient>
    <linearGradient id="_Безымянный_градиент_9-2" data-name="Безымянный градиент 9" x1="38.34" y1="72.11" x2="38.34" y2="214.12" xlink:href="#_Безымянный_градиент_9"/>
    <linearGradient id="_Безымянный_градиент_9-3" data-name="Безымянный градиент 9" x1="35.78" y1="72.11" x2="35.78" y2="214.12" xlink:href="#_Безымянный_градиент_9"/>
    <linearGradient id="_Безымянный_градиент_9-4" data-name="Безымянный градиент 9" x1="35.29" y1="72.11" x2="35.29" y2="214.12" xlink:href="#_Безымянный_градиент_9"/>
    <linearGradient id="_Безымянный_градиент_9-5" data-name="Безымянный градиент 9" x1="35.71" y1="72.11" x2="35.71" y2="214.12" xlink:href="#_Безымянный_градиент_9"/>
    <linearGradient id="_Безымянный_градиент_9-6" data-name="Безымянный градиент 9" x1="38.81" y1="72.11" x2="38.81" y2="214.12" xlink:href="#_Безымянный_градиент_9"/>
    <linearGradient id="_Безымянный_градиент_9-7" data-name="Безымянный градиент 9" x1="43.76" y1="72.11" x2="43.76" y2="214.12" xlink:href="#_Безымянный_градиент_9"/>
    <linearGradient id="_Безымянный_градиент_9-8" data-name="Безымянный градиент 9" x1="49.71" y1="72.11" x2="49.71" y2="214.12" xlink:href="#_Безымянный_градиент_9"/>
    <linearGradient id="_Безымянный_градиент_9-9" data-name="Безымянный градиент 9" x1="40.17" y1="72.11" x2="40.17" y2="166.44" xlink:href="#_Безымянный_градиент_9"/>
    <linearGradient id="_Безымянный_градиент_9-10" data-name="Безымянный градиент 9" x1="58.3" y1="72.11" x2="58.3" y2="214.12" xlink:href="#_Безымянный_градиент_9"/>
    <linearGradient id="_Безымянный_градиент_9-11" data-name="Безымянный градиент 9" x1="48.34" y1="72.11" x2="48.34" y2="172.82" xlink:href="#_Безымянный_градиент_9"/>
    <linearGradient id="_Безымянный_градиент_9-12" data-name="Безымянный градиент 9" x1="49.3" y1="72.11" x2="49.3" y2="214.12" xlink:href="#_Безымянный_градиент_9"/>
    <linearGradient id="_Безымянный_градиент_9-13" data-name="Безымянный градиент 9" x1="222.21" y1="72.11" x2="222.21" y2="214.12" xlink:href="#_Безымянный_градиент_9"/>
    <linearGradient id="_Безымянный_градиент_9-14" data-name="Безымянный градиент 9" x1="226.59" y1="72.11" x2="226.59" y2="214.12" xlink:href="#_Безымянный_градиент_9"/>
    <linearGradient id="_Безымянный_градиент_9-15" data-name="Безымянный градиент 9" x1="229.15" y1="72.11" x2="229.15" y2="214.12" xlink:href="#_Безымянный_градиент_9"/>
    <linearGradient id="_Безымянный_градиент_9-16" data-name="Безымянный градиент 9" x1="229.64" y1="72.11" x2="229.64" y2="214.12" xlink:href="#_Безымянный_градиент_9"/>
    <linearGradient id="_Безымянный_градиент_9-17" data-name="Безымянный градиент 9" x1="229.23" y1="72.11" x2="229.23" y2="214.12" xlink:href="#_Безымянный_градиент_9"/>
    <linearGradient id="_Безымянный_градиент_9-18" data-name="Безымянный градиент 9" x1="226.13" y1="72.11" x2="226.13" y2="214.12" xlink:href="#_Безымянный_градиент_9"/>
    <linearGradient id="_Безымянный_градиент_9-19" data-name="Безымянный градиент 9" x1="221.17" y1="72.11" x2="221.17" y2="214.12" xlink:href="#_Безымянный_градиент_9"/>
    <linearGradient id="_Безымянный_градиент_9-20" data-name="Безымянный градиент 9" x1="215.22" y1="72.11" x2="215.22" y2="214.12" xlink:href="#_Безымянный_градиент_9"/>
    <linearGradient id="_Безымянный_градиент_9-21" data-name="Безымянный градиент 9" x1="224.76" y1="72.11" x2="224.76" y2="166.44" xlink:href="#_Безымянный_градиент_9"/>
    <linearGradient id="_Безымянный_градиент_9-22" data-name="Безымянный градиент 9" x1="206.63" y1="72.11" x2="206.63" y2="214.12" xlink:href="#_Безымянный_градиент_9"/>
    <linearGradient id="_Безымянный_градиент_9-23" data-name="Безымянный градиент 9" x1="216.6" y1="72.11" x2="216.6" y2="172.82" xlink:href="#_Безымянный_градиент_9"/>
    <linearGradient id="_Безымянный_градиент_9-24" data-name="Безымянный градиент 9" x1="215.63" y1="72.11" x2="215.63" y2="214.12" xlink:href="#_Безымянный_градиент_9"/>
    <linearGradient id="_Безымянный_градиент_9-25" data-name="Безымянный градиент 9" x1="132.59" y1="14.5" x2="132.59" y2="245.27" xlink:href="#_Безымянный_градиент_9"/>
    <linearGradient id="_Безымянный_градиент_9-26" data-name="Безымянный градиент 9" x1="132.59" y1="14.5" x2="132.59" y2="245.27" xlink:href="#_Безымянный_градиент_9"/>
    <linearGradient id="_Безымянный_градиент_9-27" data-name="Безымянный градиент 9" x1="132.59" y1="106.92" x2="132.59" y2="168.48" xlink:href="#_Безымянный_градиент_9"/>
    <linearGradient id="_Безымянный_градиент_9-28" data-name="Безымянный градиент 9" x1="74.88" y1="187.23" x2="74.88" y2="237.89" xlink:href="#_Безымянный_градиент_9"/>
    <linearGradient id="_Безымянный_градиент_9-29" data-name="Безымянный градиент 9" x1="189.38" y1="187.23" x2="189.38" y2="237.89" xlink:href="#_Безымянный_градиент_9"/>
    <linearGradient id="_Безымянный_градиент_9-30" data-name="Безымянный градиент 9" x1="209.5" y1="48.35" x2="209.5" y2="99" xlink:href="#_Безымянный_градиент_9"/>
    <linearGradient id="_Безымянный_градиент_9-31" data-name="Безымянный градиент 9" x1="56.16" y1="48.35" x2="56.16" y2="99" xlink:href="#_Безымянный_градиент_9"/>
  </defs>
  <g>
    <g>
      <path class="cls-8" d="M46.9,99.8c-.57,0-1.15.05-1.73.18-3.99.94-5.68,3.88-6.36,5.98.32-2.15.36-5.59-1.59-9.28-.3-.56-.65-1.07-1.02-1.54-.62-.81-2.06-3.13-.8-7.32-.37-.28-6.37,13.35,2.27,20.08.19.16.41.27.64.32,0-.02.03-.14.09-.34-.02.24-.01.38,0,.36.23.03.47.02.71-.05,9.39-2.96,13-10.57,13.3-10.75-2.14,2.09-4.5,2.35-5.52,2.36Z"/>
      <path class="cls-5" d="M42.91,111.66c-.56.06-1.12.17-1.67.35-3.76,1.3-5.01,4.3-5.39,6.4.02-2.1-.41-5.39-2.88-8.65-.38-.5-.79-.94-1.23-1.35-.73-.7-2.48-2.74-1.92-6.77-.35-.28-4.16,13.2,5.15,18.77.21.13.44.21.67.24,0-.02.02-.14.05-.34.01.24.03.37.05.35.23,0,.47-.04.69-.13,8.89-3.96,11.24-11.47,11.49-11.64-1.75,2.17-4.03,2.67-5.01,2.78Z"/>
      <path class="cls-17" d="M41.09,123.44c-.53.16-1.06.36-1.55.64-3.4,1.93-4.06,5.06-4.05,7.16-.36-2.04-1.4-5.15-4.43-7.83-.46-.41-.95-.76-1.46-1.07-.85-.53-2.94-2.18-3.22-6.12-.36-.24-1.42,13.36,8.62,17.11.23.09.47.12.7.11,0-.02,0-.14-.02-.35.05.23.1.36.11.34.23-.04.45-.12.65-.26,7.99-5.52,8.78-13.11,8.96-13.31-1.26,2.38-3.38,3.27-4.31,3.56Z"/>
      <path class="cls-18" d="M41.05,135.4c-.51.22-1,.48-1.46.81-3.15,2.28-3.49,5.47-3.28,7.56-.56-1.99-1.89-4.96-5.17-7.26-.5-.35-1.02-.64-1.55-.89-.9-.43-3.13-1.83-3.84-5.66-.35-.22.04,13.32,10.29,15.96.23.06.47.07.7.03,0-.02-.02-.14-.05-.35.08.23.13.35.14.33.22-.06.43-.17.61-.33,7.37-6.41,7.33-13.98,7.48-14.18-.97,2.47-2.97,3.6-3.87,3.99Z"/>
      <path class="cls-6" d="M45.23,142.5c-.57,2.6-2.36,4.07-3.18,4.6-.46.3-.91.65-1.31,1.05-2.74,2.8-2.59,6.02-2.06,8.06-.85-1.88-2.61-4.59-6.18-6.3-.55-.26-1.1-.46-1.66-.62-.95-.27-3.35-1.27-4.65-4.92-.37-.17,2.09,13.15,12.54,14.02.24.02.47-.01.69-.09-.01-.01-.04-.14-.1-.34.11.21.19.32.19.3.21-.1.4-.25.55-.43,6.25-7.64,5.06-15.11,5.17-15.33Z"/>
      <path class="cls-32" d="M47.71,153.54c-.12,2.68-1.63,4.47-2.34,5.15-.4.39-.78.81-1.11,1.29-2.21,3.29-1.51,6.45-.63,8.38-1.16-1.7-3.36-4.06-7.14-5.08-.58-.16-1.16-.24-1.73-.3-.97-.09-3.5-.63-5.39-3.99-.39-.1,4.26,12.61,14.7,11.52.24-.02.46-.1.66-.22-.02-.01-.07-.13-.16-.31.15.19.24.28.24.26.19-.14.35-.32.47-.53,4.78-8.77,2.36-15.93,2.43-16.16Z"/>
      <path class="cls-1" d="M51.66,164.4c.27,2.69-.95,4.71-1.55,5.51-.34.45-.65.93-.9,1.46-1.7,3.63-.5,6.68.68,8.46-1.43-1.51-3.99-3.52-7.88-3.93-.6-.06-1.18-.06-1.75-.02-.97.07-3.56-.07-5.91-3.12-.42-.04,6.07,11.89,16.34,9.15.24-.06.45-.17.62-.32-.02,0-.09-.11-.21-.29.18.17.28.24.28.22.16-.17.29-.37.38-.6,3.29-9.51-.13-16.26-.1-16.5Z"/>
      <g>
        <path class="cls-9" d="M58.16,192.23c2.84-9.74-.78-16.5-.74-16.74.34,2.71-.83,4.79-1.41,5.6-.33.46-.63.96-.87,1.5-1.61,3.71-.25,6.78,1.05,8.57-1.54-1.52-4.24-3.51-8.19-3.85-.61-.05-1.2-.04-1.78.01-.98.09-3.6,0-6.04-3.02.12.19,1.42,3.07,4.32,5.57,2.94,2.62,7.62,4.83,12.61,3.39.24-.07.45-.18.63-.34-.02,0-.1-.11-.23-.29.19.16.3.24.3.22.16-.17.28-.38.36-.62Z"/>
        <path class="cls-19" d="M40.18,184.3s0-.01,0-.01c0,0,0,0,0,.01Z"/>
      </g>
      <g>
        <path class="cls-3" d="M67.91,202.97c.13-.2.21-.43.24-.68.9-10.35-3.9-16.72-3.88-16.96.79,2.7-.02,4.96-.47,5.87-.25.51-.47,1.06-.61,1.64-.99,3.98,1.01,6.94,2.71,8.61-1.89-1.36-5.06-3.05-9.12-2.88-.63.02-1.22.12-1.8.25-.98.22-3.66.47-6.63-2.27.16.19,1.94,2.91,5.33,5.08,3.46,2.28,8.7,3.95,13.6,1.85.23-.1.43-.24.58-.43-.02,0-.13-.11-.3-.26.23.14.36.21.36.19Z"/>
        <path class="cls-26" d="M48.33,196.53s0,0,.01.01c0,0-.01-.01-.01-.01Z"/>
      </g>
      <path class="cls-12" d="M42.47,96.74c-.19.22.36-9.09,8.17-12.66.3-.13.59-.24.88-.34.98-.35,3.5-1.15,4.64-1.83,0,.02-2.34,3.47-4.73,6.94-2.54,3.5-5.14,7.03-8.96,7.88Z"/>
    </g>
    <g>
      <path class="cls-4" d="M218.04,99.8c.57,0,1.15.05,1.73.18,3.99.94,5.68,3.88,6.36,5.98-.32-2.15-.36-5.59,1.59-9.28.3-.56.65-1.07,1.02-1.54.62-.81,2.06-3.13.8-7.32.37-.28,6.37,13.35-2.27,20.08-.19.16-.41.27-.64.32,0-.02-.03-.14-.09-.34.02.24.01.38,0,.36-.23.03-.47.02-.71-.05-9.39-2.96-13-10.57-13.3-10.75,2.14,2.09,4.5,2.35,5.52,2.36Z"/>
      <path class="cls-21" d="M222.03,111.66c.56.06,1.12.17,1.67.35,3.76,1.3,5.01,4.3,5.39,6.4-.02-2.1.41-5.39,2.88-8.65.38-.5.79-.94,1.23-1.35.73-.7,2.48-2.74,1.92-6.77.35-.28,4.16,13.2-5.15,18.77-.21.13-.44.21-.67.24,0-.02-.02-.14-.05-.34-.01.24-.03.37-.05.35-.23,0-.47-.04-.69-.13-8.89-3.96-11.24-11.47-11.49-11.64,1.75,2.17,4.03,2.67,5.01,2.78Z"/>
      <path class="cls-11" d="M223.84,123.44c.53.16,1.06.36,1.55.64,3.4,1.93,4.06,5.06,4.05,7.16.36-2.04,1.4-5.15,4.43-7.83.46-.41.95-.76,1.46-1.07.85-.53,2.94-2.18,3.22-6.12.36-.24,1.42,13.36-8.62,17.11-.23.09-.47.12-.7.11,0-.02,0-.14.02-.35-.05.23-.1.36-.11.34-.23-.04-.45-.12-.65-.26-7.99-5.52-8.78-13.11-8.96-13.31,1.26,2.38,3.38,3.27,4.31,3.56Z"/>
      <path class="cls-7" d="M223.89,135.4c.51.22,1,.48,1.46.81,3.15,2.28,3.49,5.47,3.28,7.56.56-1.99,1.89-4.96,5.17-7.26.5-.35,1.02-.64,1.55-.89.9-.43,3.13-1.83,3.84-5.66.35-.22-.04,13.32-10.29,15.96-.23.06-.47.07-.7.03,0-.02.02-.14.05-.35-.08.23-.13.35-.14.33-.22-.06-.43-.17-.61-.33-7.37-6.41-7.33-13.98-7.48-14.18.97,2.47,2.97,3.6,3.87,3.99Z"/>
      <path class="cls-25" d="M219.71,142.5c.57,2.6,2.36,4.07,3.18,4.6.46.3.91.65,1.31,1.05,2.74,2.8,2.59,6.02,2.06,8.06.85-1.88,2.61-4.59,6.18-6.3.55-.26,1.1-.46,1.66-.62.95-.27,3.35-1.27,4.65-4.92.37-.17-2.09,13.15-12.54,14.02-.24.02-.47-.01-.69-.09.01-.01.04-.14.1-.34-.11.21-.19.32-.19.3-.21-.1-.4-.25-.55-.43-6.25-7.64-5.06-15.11-5.17-15.33Z"/>
      <path class="cls-23" d="M217.23,153.54c.12,2.68,1.63,4.47,2.34,5.15.4.39.78.81,1.11,1.29,2.21,3.29,1.51,6.45.63,8.38,1.16-1.7,3.36-4.06,7.14-5.08.58-.16,1.16-.24,1.73-.3.97-.09,3.5-.63,5.39-3.99.39-.1-4.26,12.61-14.7,11.52-.24-.02-.46-.1-.66-.22.02-.01.07-.13.16-.31-.15.19-.24.28-.24.26-.19-.14-.35-.32-.47-.53-4.78-8.77-2.36-15.93-2.43-16.16Z"/>
      <path class="cls-15" d="M213.27,164.4c-.27,2.69.95,4.71,1.55,5.51.34.45.65.93.9,1.46,1.7,3.63.5,6.68-.68,8.46,1.43-1.51,3.99-3.52,7.88-3.93.6-.06,1.18-.06,1.75-.02.97.07,3.56-.07,5.91-3.12.42-.04-6.07,11.89-16.34,9.15-.24-.06-.45-.17-.62-.32.02,0,.09-.11.21-.29-.18.17-.28.24-.28.22-.16-.17-.29-.37-.38-.6-3.29-9.51.13-16.26.1-16.5Z"/>
      <g>
        <path class="cls-13" d="M206.78,192.23c-2.84-9.74.78-16.5.74-16.74-.34,2.71.83,4.79,1.41,5.6.33.46.63.96.87,1.5,1.61,3.71.25,6.78-1.05,8.57,1.54-1.52,4.24-3.51,8.19-3.85.61-.05,1.2-.04,1.78.01.98.09,3.6,0,6.04-3.02-.12.19-1.42,3.07-4.32,5.57-2.94,2.62-7.62,4.83-12.61,3.39-.24-.07-.45-.18-.63-.34.02,0,.1-.11.23-.29-.19.16-.3.24-.3.22-.16-.17-.28-.38-.36-.62Z"/>
        <path class="cls-31" d="M224.76,184.3s0-.01,0-.01c0,0,0,0,0,.01Z"/>
      </g>
      <g>
        <path class="cls-14" d="M197.02,202.97c-.13-.2-.21-.43-.24-.68-.9-10.35,3.9-16.72,3.88-16.96-.79,2.7.02,4.96.47,5.87.25.51.47,1.06.61,1.64.99,3.98-1.01,6.94-2.71,8.61,1.89-1.36,5.06-3.05,9.12-2.88.63.02,1.22.12,1.8.25.98.22,3.66.47,6.63-2.27-.16.19-1.94,2.91-5.33,5.08-3.46,2.28-8.7,3.95-13.6,1.85-.23-.1-.43-.24-.58-.43.02,0,.13-.11.3-.26-.23.14-.36.21-.36.19Z"/>
        <path class="cls-30" d="M216.6,196.53s0,0-.01.01c0,0,.01-.01.01-.01Z"/>
      </g>
      <path class="cls-27" d="M222.46,96.74c.19.22-.36-9.09-8.17-12.66-.3-.13-.59-.24-.88-.34-.98-.35-3.5-1.15-4.64-1.83,0,.02,2.34,3.47,4.73,6.94,2.54,3.5,5.14,7.03,8.96,7.88Z"/>
    </g>
    <path class="cls-16" d="M132.59,246.14c-15.5,0-30.54-3.04-44.7-9.02-13.67-5.78-25.95-14.06-36.5-24.61-10.55-10.55-18.83-22.83-24.61-36.5-5.99-14.16-9.02-29.2-9.02-44.7s3.04-30.54,9.02-44.7c5.78-13.67,14.06-25.95,24.61-36.5,10.55-10.55,22.83-18.83,36.5-24.61,14.16-5.99,29.2-9.02,44.7-9.02s30.54,3.04,44.7,9.02c13.67,5.78,25.95,14.06,36.5,24.61,10.55,10.55,18.83,22.83,24.61,36.5,5.99,14.16,9.02,29.2,9.02,44.7s-3.04,30.54-9.02,44.7c-5.78,13.67-14.06,25.96-24.61,36.5-10.55,10.55-22.83,18.83-36.5,24.61-14.16,5.99-29.2,9.02-44.7,9.02ZM132.59,18.82c-62.02,0-112.48,50.46-112.48,112.48s50.46,112.48,112.48,112.48,112.48-50.46,112.48-112.48S194.62,18.82,132.59,18.82Z"/>
    <g>
      <path class="cls-29" d="M82.38,225.35l6.8-15.59-1.38-1.15.11-.24,5.78,2.52-.11.24-1.78-.23-3.22,7.38,8.79,3.83,3.22-7.38-1.38-1.15.11-.24,5.76,2.51-.11.24-1.78-.23-6.8,15.59,1.38,1.15-.11.24-5.76-2.51.11-.24,1.78.23,3.36-7.7-8.79-3.83-3.36,7.7,1.38,1.15-.11.24-5.78-2.52.11-.24,1.78.23Z"/>
      <path class="cls-29" d="M119.66,230.67c-.85,4.32-4.28,6.34-8.49,5.51-4.24-.84-6.65-4.07-5.81-8.33l2.11-10.68-1.59-.83.05-.26,6.19,1.22-.05.26-1.79.16-2.11,10.68c-.76,3.85,1.12,6.35,4.24,6.97,3.25.64,6-1.11,6.73-4.8l2.12-10.74-1.6-.8.05-.23,3.9.77-.05.23-1.78.13-2.12,10.74Z"/>
      <path class="cls-29" d="M129.17,229.8l8.76-9.62-2.15-.47v-.26s4.77-.07,4.77-.07v.27s-1.87.53-1.87.53l-5.53,6.12,7.47,10.94,1.54.4v.27s-4.24.06-4.24.06l-6.71-9.71-2.03,2.26.1,6.81,1.73.48v.27s-6.28.09-6.28.09v-.26s1.71-.53,1.71-.53l-.25-17.01-1.73-.48v-.26s6.28-.09,6.28-.09v.26s-1.71.53-1.71.53l.14,9.49Z"/>
      <path class="cls-29" d="M161.19,227.01c.99,4.29-1.31,7.53-5.5,8.5-4.21.97-7.73-.99-8.71-5.23l-2.44-10.61-1.79-.1-.06-.26,6.15-1.41.06.26-1.57.88,2.44,10.61c.88,3.82,3.62,5.34,6.72,4.63,3.23-.74,5.02-3.47,4.18-7.13l-2.45-10.66-1.79-.08-.05-.23,3.87-.89.05.23-1.57.85,2.45,10.66Z"/>
      <path class="cls-29" d="M169.52,222.31l4.07-12.36-2.16.45-.11-.24,4.32-2.01.11.24-1.49,1.25-2.54,7.85,11.29,6.93,1.57-.26.11.24-3.84,1.79-10.09-6.11-.93,2.89,2.87,6.17,1.77-.27.11.24-5.69,2.65-.11-.24,1.35-1.18-7.18-15.42-1.77.27-.11-.24,5.69-2.65.11.24-1.35,1.18,4,8.6Z"/>
    </g>
    <path class="cls-28" d="M132.59,213.33c-11.07,0-21.81-2.17-31.93-6.45-9.77-4.13-18.54-10.05-26.07-17.58-7.53-7.53-13.45-16.3-17.58-26.07-4.28-10.11-6.45-20.85-6.45-31.93s2.17-21.81,6.45-31.93c4.13-9.77,10.05-18.54,17.58-26.07,7.53-7.53,16.3-13.45,26.07-17.58,10.11-4.28,20.85-6.45,31.93-6.45s21.81,2.17,31.93,6.45c9.77,4.13,18.54,10.05,26.07,17.58,7.53,7.53,13.45,16.3,17.58,26.07,4.28,10.11,6.45,20.85,6.45,31.93s-2.17,21.81-6.45,31.93c-4.13,9.77-10.05,18.54-17.58,26.07-7.53,7.53-16.3,13.45-26.07,17.58-10.11,4.28-20.85,6.45-31.93,6.45ZM132.59,51.63c-43.93,0-79.67,35.74-79.67,79.67s35.74,79.67,79.67,79.67,79.67-35.74,79.67-79.67-35.74-79.67-79.67-79.67Z"/>
    <g>
      <path class="cls-29" d="M83.58,57.62l1.65-.68.17.21-5.01,4.07-.17-.21,1.05-1.51-5.17-2.81-6.28,5.09,1.59,5.71,2.15-1.09.17.21-3.7,3-.17-.21,1.09-1.54-5.22-18.9.69-.56,17.16,9.22ZM69.66,61.19l5.91-4.79-8.55-4.68,2.65,9.47Z"/>
      <path class="cls-29" d="M85.88,36.02c4.82-2.34,9.74-.79,12.28,4.46,2.57,5.3.72,10.07-4.1,12.41l-7.69,3.73-.09-.19,1.38-1.15-7.62-15.71-1.74.4-.11-.22,7.69-3.73ZM82.59,38.21l7.71,15.9,3.52-1.71c3.18-1.54,4.2-5.28,1.63-10.58-2.58-5.33-6.16-6.87-9.34-5.32l-3.52,1.71Z"/>
      <path class="cls-29" d="M119.9,43.64l1.79.09.06.26-6.27,1.52-.06-.26,1.6-.91-3.47-4.75-7.86,1.91-1.01,5.84,2.41-.06.06.26-4.63,1.12-.06-.26,1.65-.92,3.39-19.31.86-.21,11.55,15.69ZM105.78,40.89l7.39-1.79-5.72-7.9-1.67,9.69Z"/>
      <path class="cls-29" d="M134.96,43.26l1.19-2.76h.43s.08,3.25.08,3.25l-13.73.35v-.21s1.72-.47,1.72-.47l-.45-17.32-1.75-.46v-.27s6.36-.16,6.36-.16v.27s-1.72.55-1.72.55l.45,17.43,7.42-.19Z"/>
      <path class="cls-29" d="M156.71,46.12l1.59.81-.05.26-6.34-1.18.05-.26,1.83-.18-1.21-5.76-7.95-1.48-3.31,4.91,2.22.93-.05.26-4.69-.87.05-.26,1.88-.17,11.01-16.22.87.16,4.1,19.04ZM144.96,37.82l7.48,1.4-1.98-9.55-5.5,8.15Z"/>
      <path class="cls-29" d="M173.5,33.94l-6.53,16.16,1.42,1.12-.1.25-5.91-2.39.1-.25,1.8.18,6.53-16.16-4.62-1.87-2.2,2.09-.4-.16,1.23-3.05,15.07,6.09-1.23,3.05-.42-.17-.11-3.02-4.64-1.88Z"/>
      <path class="cls-29" d="M184.82,60.46l2.56-1.58.36.24-1.8,2.73-11.46-7.58.12-.18,1.69.6,9.56-14.45-1.17-1.38.15-.22,5.32,3.52-.15.22-1.73-.54-9.62,14.54,6.19,4.09Z"/>
      <path class="cls-29" d="M199.01,61.92l10.64-2.66-1.29-1.91.18-.19,3.47,3.27-.18.19-1.73-.93-11.3,2.85-5.05,5.36.86,1.51-.18.19-4.56-4.3.18-.2,1.62.82,5.05-5.36,2.18-11.45-.86-1.51.18-.19,4.7,4.43-.18.19-1.64-.84-2.09,10.73Z"/>
    </g>
    <path class="cls-2" d="M80.3,121.14l7.2,43.29c21.45-.96,35.61.81,42.5,5.33-8.06-7.46-19.73-10.91-38.4-10.51,0,0-2.23-13.04-6.34-38.11h-4.97ZM147.61,121.8c.15.15.41.25.71.25l-.46,18.12c-2.44-.05-4.82.2-7.05.76l6.8-19.13ZM149.03,121.9l6.8,19.03c-2.28-.56-4.62-.81-7.05-.76l-.46-18.12h.25l.46-.15ZM116.16,121.9l.46.15h.25l-.46,18.12c-2.43-.05-4.77.2-7.05.76l6.8-19.03ZM117.58,121.8l6.8,19.13c-2.23-.56-4.62-.81-7.05-.76l-.46-18.12c.3,0,.56-.1.71-.25h0ZM94.65,107.18c4.62,26.69,7.05,40.85,7.05,40.85,8.62.41,16.43,2.94,22.52,7.36,1.01-.71,2.38-1.32,3.5-1.67,4.51-1.57,1.78-2.08,2.13-4.97.35-1.37,1.22-1.88,1.17-3.15-.41-8.47-1.67-10.76-4.82-18.07,2.18.36,3.85-.1,3.35-2.89-.41-1.98-2.13-2.08-4.06-1.67-2.23.56-3.4.91-4.92-.56-2.08-1.98-2.33-1.07-2.99-.61l7.56,19.33c.46,7.1-16.94,7.1-16.53,0l7.56-19.23c-1.37-.71-.51-3.4,1.32-2.49.66.35.25.46.91.35.51-.05.46-.35,1.12-.05.86.31.15.56,1.78,1.32,2.13.96,3.04.71,4.87-.36,2.33-1.32,2.74-.41,5.38-.56-.61-.96-1.12-1.06-.86-2.54.05-.2.2-.41.35-.56-8.42-10.86-22.01-15.43-36.37-9.84h0ZM126.05,156.81c2.59,2.23,4.82,4.87,6.54,7.87,1.72-2.99,3.9-5.63,6.54-7.87h-13.09ZM140.96,155.39c6.04-4.41,13.9-6.95,22.52-7.36,0,0,2.43-14.16,7.05-40.85-14.35-5.58-27.95-1.02-36.37,9.84.15.15.31.36.36.56.25,1.47-.25,1.57-.86,2.54,2.59.15,3.04-.76,5.38.56,1.83,1.07,2.74,1.32,4.82.36,1.68-.76.96-1.01,1.83-1.32.66-.3.61,0,1.12.05.66.1.25,0,.91-.35,1.83-.91,2.69,1.78,1.32,2.49l7.56,19.23c.41,7.1-16.99,7.1-16.53,0l7.56-19.33c-.66-.46-.91-1.37-2.99.61-1.52,1.47-2.69,1.12-4.92.56-1.93-.41-3.65-.31-4.06,1.67-.51,2.79,1.17,3.25,3.35,2.89-3.14,7.31-4.41,9.59-4.87,18.07,0,1.27.86,1.78,1.17,3.15.41,2.89-2.33,3.4,2.18,4.97,1.12.35,2.49.96,3.5,1.67h0ZM177.94,112.61l-7.15,43.39c-15.62-.1-29.01,3.25-36.72,11.16,5.17-9.95,17.04-15.99,32.61-16.49l6.54-38.01,4.72-.05ZM184.89,121.14l-7.2,43.29c-21.46-.96-35.61.81-42.51,5.33,8.07-7.46,19.73-10.91,38.4-10.51,0,0,2.18-13.04,6.34-38.11h4.97ZM87.25,112.61l7.15,43.39c15.62-.1,29.01,3.25,36.72,11.16-5.22-9.95-17.04-15.99-32.61-16.49l-6.54-38.01-4.72-.05Z"/>
    <g>
      <path class="cls-29" d="M89.47,78.71c1.61-1.8,2.36-1.78,3.87.5.07.1.12.22.18.33,1.29,2.25,2.24,4.66,3.23,7.05.69,1.66,1.3,3.36,2.33,4.85.95,1.38,1.02,2.61.11,4.01-.78,1.2-1.87,2.07-3.1,2.71-1.47.75-1.95,1.98-1.97,3.49,0,.5.18,1,.17,1.5,0,.64.13,1.13.81,1.31.48.13.89-.01,1.13-.46.32-.6.09-1.04-.39-1.49-.8-.74-.6-1.95.36-2.43,1.07-.54,2.17-1.02,3.23-1.58.56-.3.81-.17,1.06.39.94,2.04,1.9,4.08,2.86,6.11,2.38-.27,4.7-.27,6.96,0-1.28-3.01-2.48-6.04-3.57-9.13-.23-.65-.04-.88.51-1.13,1.15-.51,2.28-1.08,3.41-1.63,1.51-.72,2.25-.33,2.55,1.35.09.49.34.8.83.91.49.11.88-.06,1.11-.5.23-.44.15-.86-.18-1.22-.41-.44-.8-.9-1.26-1.28-1.22-1.01-2.53-1.46-4.1-.72-.97.46-2.03.68-3.11.74-2.13.12-3.39-.69-4.14-2.69-.57-1.54-1.08-3.1-1.72-4.61-1.6-3.81-3.27-7.6-6.08-10.73-2.31-2.58-4.49-2.92-7.49-1.21-2.45,1.39-2.8,3.67-.87,5.61,1.25,1.26,2.05,1.28,3.24-.05Z"/>
      <path class="cls-29" d="M157.86,169.22c-1.85-1.41-3.65-2.86-5.41-4.35-3.42.37-6.44.89-9.06,1.56,5.81,5.25,12.14,9.85,19.12,13.61,5.11,2.74,10.41,4.99,16.21,5.83,1.61.24,3.24.35,4.9-.15-.21-.12-.42-.25-.64-.36-8.86-4.62-17.17-10.07-25.11-16.13Z"/>
    </g>
    <g>
      <path class="cls-29" d="M152,95.36c.49-.11.75-.42.83-.91.29-1.68,1.04-2.07,2.55-1.35,1.14.55,2.26,1.12,3.41,1.63.55.25.74.48.51,1.13-1.08,3.05-2.27,6.06-3.53,9.04,2.23-.19,4.53-.13,6.87.2.98-2.06,1.95-4.14,2.91-6.21.26-.56.5-.69,1.06-.39,1.06.56,2.16,1.04,3.23,1.58.96.48,1.15,1.69.36,2.43-.48.45-.71.89-.39,1.49.24.45.65.59,1.13.46.68-.18.82-.67.81-1.31,0-.5.18-1,.17-1.5-.02-1.51-.5-2.74-1.97-3.49-1.24-.64-2.33-1.51-3.1-2.71-.91-1.41-.84-2.64.11-4.01,1.03-1.49,1.64-3.19,2.33-4.85.99-2.39,1.94-4.8,3.23-7.05.06-.11.11-.23.18-.33,1.51-2.27,2.26-2.3,3.87-.5,1.19,1.33,1.99,1.31,3.24.05,1.93-1.94,1.58-4.22-.87-5.61-3-1.71-5.18-1.37-7.49,1.21-2.81,3.13-4.48,6.91-6.08,10.73-.63,1.51-1.14,3.07-1.72,4.61-.74,2-2.01,2.81-4.14,2.69-1.08-.06-2.14-.28-3.11-.74-1.57-.75-2.88-.3-4.1.72-.46.38-.85.84-1.26,1.28-.33.36-.41.78-.18,1.22.23.44.62.61,1.11.5Z"/>
      <path class="cls-29" d="M113.51,164.95c-1.73,1.46-3.5,2.88-5.31,4.26-7.94,6.06-16.25,11.51-25.11,16.13-.22.11-.43.24-.64.36,1.66.5,3.29.39,4.9.15,5.79-.85,11.1-3.09,16.21-5.83,6.9-3.71,13.16-8.25,18.92-13.43-2.59-.7-5.58-1.25-8.97-1.65Z"/>
    </g>
  </g>
  <g>
    <circle class="cls-22" cx="74.88" cy="210.98" r="4.69"/>
    <circle class="cls-20" cx="189.38" cy="210.98" r="4.69"/>
    <circle class="cls-24" cx="209.5" cy="72.09" r="4.69"/>
    <circle class="cls-10" cx="56.16" cy="72.09" r="4.69"/>
  </g>
</svg>